<svg width="64" height="64" viewBox="0 0 64 64" fill="none" xmlns="http://www.w3.org/2000/svg">
<path d="M16.6165 20.7781C17.1763 18.5568 19.1741 17 21.4649 17H27.3584C27.684 17 27.9228 17.3064 27.8432 17.6222L20.3835 47.2219C19.8237 49.4432 17.8259 51 15.5351 51H10.2833C9.63193 51 9.15443 50.3872 9.31361 49.7556L16.6165 20.7781Z" fill="#FFB900"/>
<path d="M45.0133 17.6817C45.6075 15.5078 47.5827 14 49.8364 14H56.345C56.6748 14 56.9143 14.3137 56.8273 14.6318L48.9867 43.3183C48.3925 45.4922 46.4173 47 44.1636 47H38.31C37.6504 47 37.1715 46.3726 37.3454 45.7363L45.0133 17.6817Z" fill="#00A4EF"/>
<path d="M27.3633 14.2742C27.1812 13.6355 27.6608 13 28.325 13H31.2143C33.4155 13 35.3579 14.4396 35.9981 16.5458L40.6076 31.7092C40.8029 32.3515 40.3222 33 39.6508 33H33.4573C33.0107 33 32.6181 32.7038 32.4957 32.2742L27.3633 14.2742Z" fill="#F25022"/>
</svg>
