<?xml version="1.0" standalone="no"?><!DOCTYPE svg PUBLIC "-//W3C//DTD SVG 1.1//EN" "http://www.w3.org/Graphics/SVG/1.1/DTD/svg11.dtd"><svg t="1649904783838" class="icon" viewBox="0 0 1024 1024" version="1.1" xmlns="http://www.w3.org/2000/svg" p-id="1622" xmlns:xlink="http://www.w3.org/1999/xlink" width="48" height="48"><defs><style type="text/css">@font-face { font-family: feedback-iconfont; src: url("//at.alicdn.com/t/font_1031158_u69w8yhxdu.woff2?t=1630033759944") format("woff2"), url("//at.alicdn.com/t/font_1031158_u69w8yhxdu.woff?t=1630033759944") format("woff"), url("//at.alicdn.com/t/font_1031158_u69w8yhxdu.ttf?t=1630033759944") format("truetype"); }
</style></defs><path d="M512 512m-470.875502 0a470.875502 470.875502 0 1 0 941.751004 0 470.875502 470.875502 0 1 0-941.751004 0Z" fill="#93EDD1" p-id="1623"></path><path d="M512 61.686747c120.280932 0 233.365076 46.840803 318.418763 131.89449C915.468337 278.630811 962.313253 391.714956 962.313253 512c0 120.280932-46.844916 233.365076-131.89449 318.418763S632.280932 962.313253 512 962.313253C263.698506 962.313253 61.686747 760.305606 61.686747 512 61.686747 263.698506 263.698506 61.686747 512 61.686747zM20.562249 512C20.562249 782.981655 241.018345 1003.437751 512 1003.437751c131.269398 0 254.684016-51.125976 347.497896-143.939855C952.311775 766.679904 1003.437751 643.269398 1003.437751 512c0-131.265285-51.125976-254.679904-143.939855-347.502008C766.684016 71.68 643.269398 20.562249 512 20.562249 241.018345 20.562249 20.562249 241.018345 20.562249 512z" fill="#6E6E96" p-id="1624"></path><path d="M628.176707 660.796659m-120.289157 0a120.289157 120.289157 0 1 0 240.578313 0 120.289157 120.289157 0 1 0-240.578313 0Z" fill="#FFED7F" p-id="1625"></path><path d="M628.176707 561.069751c54.987566 0 99.726908 44.739341 99.726907 99.726908s-44.739341 99.726908-99.726907 99.726907-99.726908-44.739341-99.726908-99.726907 44.739341-99.726908 99.726908-99.726908z m-140.851406 99.726908c0 77.671839 63.183679 140.851406 140.851406 140.851405S769.028112 738.456161 769.028112 660.796659s-63.183679-140.851406-140.851405-140.851406-140.851406 63.183679-140.851406 140.851406z" fill="#6E6E96" p-id="1626"></path><path d="M275.468337 496.158843m-82.314795 0a82.314795 82.314795 0 1 0 164.629591 0 82.314795 82.314795 0 1 0-164.629591 0Z" fill="#6E6E96" p-id="1627"></path><path d="M542.608964 291.757751m-90.473896 0a90.473896 90.473896 0 1 0 180.947791 0 90.473896 90.473896 0 1 0-180.947791 0Z" fill="#FFFFFF" p-id="1628"></path><path d="M542.608964 221.846104c38.545992 0 69.911647 31.361542 69.911646 69.911647 0 38.550104-31.365655 69.911647-69.911646 69.911647-38.554217 0-69.911647-31.361542-69.911647-69.911647 0-38.550104 31.361542-69.911647 69.911647-69.911647z m-111.036145 69.911647c0 61.226153 49.809992 111.036145 111.036145 111.036145s111.036145-49.809992 111.036144-111.036145-49.809992-111.036145-111.036144-111.036145-111.036145 49.809992-111.036145 111.036145z" fill="#6E6E96" p-id="1629"></path><path d="M799.871486 437.975904m-43.180723 0a43.180723 43.180723 0 1 0 86.361446 0 43.180723 43.180723 0 1 0-86.361446 0Z" fill="#6E6E96" opacity=".56" p-id="1630"></path><path d="M340.917976 752.997783m-57.574297 0a57.574297 57.574297 0 1 0 115.148594 0 57.574297 57.574297 0 1 0-115.148594 0Z" fill="#6E6E96" opacity=".53" p-id="1631"></path><path d="M331.052209 265.253012m-26.730924 0a26.730924 26.730924 0 1 0 53.461848 0 26.730924 26.730924 0 1 0-53.461848 0Z" fill="#6E6E96" p-id="1632"></path><path d="M57.574297 553.124498C57.574297 304.823004 259.586056 102.811245 507.88755 102.811245c120.280932 0 233.365076 46.840803 318.418763 131.89449C911.355888 319.755309 958.200803 432.839454 958.200803 553.124498h41.124498c0-131.265285-51.125976-254.679904-143.939855-347.502008C762.571566 112.804498 639.156948 61.686747 507.88755 61.686747 236.905896 61.686747 16.449799 282.142843 16.449799 553.124498h41.124498z" fill="#6E6E96" opacity=".15" p-id="1633"></path></svg>