<?xml version="1.0" standalone="no"?><!DOCTYPE svg PUBLIC "-//W3C//DTD SVG 1.1//EN" "http://www.w3.org/Graphics/SVG/1.1/DTD/svg11.dtd"><svg t="1656153072692" class="icon" viewBox="0 0 1024 1024" version="1.1" xmlns="http://www.w3.org/2000/svg" p-id="18330" xmlns:xlink="http://www.w3.org/1999/xlink" width="48" height="48"><defs><style type="text/css">@font-face { font-family: feedback-iconfont; src: url("//at.alicdn.com/t/font_1031158_u69w8yhxdu.woff2?t=1630033759944") format("woff2"), url("//at.alicdn.com/t/font_1031158_u69w8yhxdu.woff?t=1630033759944") format("woff"), url("//at.alicdn.com/t/font_1031158_u69w8yhxdu.ttf?t=1630033759944") format("truetype"); }
</style></defs><path d="M673.5 63.6H349.2C191 63.6 62.3 192.2 62.3 350.4v324.3c0 158.2 128.7 286.8 286.8 286.8h324.3c158.2 0 286.8-128.6 286.8-286.8V350.4c0.1-158.2-128.5-286.8-286.7-286.8z m230.4 611.1c0 127.3-103.2 230.4-230.4 230.4H349.2c-127.2 0-230.4-103.2-230.4-230.4V350.4C118.8 223.1 222 120 349.2 120h324.3c127.3 0 230.4 103.1 230.4 230.4v324.3z" fill="#ffffff" p-id="18331"></path><path d="M177.6 584.4c10.4 0 18.8-8.4 18.8-18.8V343.2c0-80.3 65.3-145.7 145.6-145.7h338.6c34.2 0 67.5 12.2 93.7 34.2 7.9 6.7 19.8 5.7 26.5-2.3 6.7-8 5.7-19.8-2.3-26.5-33-27.7-74.8-43-117.9-43H342c-101 0-183.3 82.2-183.3 183.3v222.3c0.1 10.4 8.5 18.9 18.9 18.9zM826.3 328.2v353.7c0 80.3-65.3 145.7-145.7 145.7H342c-80.3 0-145.6-65.3-145.6-145.7 0-10.4-8.4-18.8-18.8-18.8s-18.8 8.4-18.8 18.8c0 101.1 82.2 183.3 183.3 183.3h338.6C781.8 865.2 864 783 864 681.9V328.2c0-10.4-8.4-18.8-18.8-18.8-10.5 0-18.9 8.4-18.9 18.8z" fill="#ffffff" p-id="18332"></path><path d="M400.1 353.8c-5.8-2.9-12.8-2.6-18.3 0.8-5.5 3.4-8.9 9.5-8.9 16v283.8c0 6.5 3.4 12.6 8.9 16 3 1.9 6.5 2.8 9.9 2.8 2.9 0 5.7-0.7 8.4-2L684 529.4a18.769 18.769 0 0 0 0-33.6l-283.9-142z m10.4 270.3v-223l223 111.5-223 111.5z" fill="#ffffff" p-id="18333"></path></svg>